# xmcd CD database file
#
# Track frame offsets:
#	150
#	24162
#	46650
#	75012
#	80462
#	104987
#	109837
#	122537
#	133387
#	141700
#	154275
#	172212
#	180287
#	196950
#	206500
#	238062
#	248800
#	278250
#
# Disc length: 3908 seconds
#
# Revision: 0
# Processed by: cddbd v1.5.1PL0 Copyright (c) Steve Scherf et al.
# Submitted via: CDex 1.50
#
DISCID=f40f4212
DTITLE=Yusef Lateef - Cantata
DYEAR=1995
DGENRE=Jazz
TTITLE0=Acknowledgements, Air, Water, And Thought (Parlando)
TTITLE1=Instrumental Ritornello #1
TTITLE2=Five Part Intuition And The Flight (Parlando)
TTITLE3=Hunting For A City (Acappella)
TTITLE4=Instrumental Ritornello #2
TTITLE5=Hold Your Light (Acappella)
TTITLE6=Instrumental Ritornello #3
TTITLE7=Bound To Go (Acappella)
TTITLE8=Wrestle On (Acappella)
TTITLE9=Plaque Party And Compassion Violation (Parlando)
TTITLE10=Instrumental Riotrnello #4
TTITLE11=Not Weary Yet (Acappella)
TTITLE12=Body Turn Around (Recitativo Secco)
TTITLE13=I Can't Stay Behind (Acappella)
TTITLE14=Instrumental Ritornello #5
TTITLE15=I Hear From Heaven Today (Acappella)
TTITLE16=Instrumental Ritornello #6
TTITLE17=Lay This Body Down (Acappella)
EXTD=YEAR: 1995
EXTT0=
EXTT1=
EXTT2=
EXTT3=
EXTT4=
EXTT5=
EXTT6=
EXTT7=
EXTT8=
EXTT9=
EXTT10=
EXTT11=
EXTT12=
EXTT13=
EXTT14=
EXTT15=
EXTT16=
EXTT17=
PLAYORDER=
